<?xml version="1.0" encoding="UTF-8" standalone="no"?>
<svg
   xmlns:dc="http://purl.org/dc/elements/1.1/"
   xmlns:cc="http://creativecommons.org/ns#"
   xmlns:rdf="http://www.w3.org/1999/02/22-rdf-syntax-ns#"
   xmlns:svg="http://www.w3.org/2000/svg"
   xmlns="http://www.w3.org/2000/svg"
   xml:space="preserve"
   style="enable-background:new 0 0 254.9 356;"
   viewBox="0 0 254.9 356"
   y="0px"
   x="0px"
   id="Ebene_1"
   version="1.1"><metadata
   id="metadata235"><rdf:RDF><cc:Work
       rdf:about=""><dc:format>image/svg+xml</dc:format><dc:type
         rdf:resource="http://purl.org/dc/dcmitype/StillImage" /><dc:title></dc:title></cc:Work></rdf:RDF></metadata><defs
   id="defs233" />
<style
   id="style2"
   type="text/css">
	.st0{fill:url(#SVGID_1_);}
	.st1{opacity:0.2;}
	.st2{fill:url(#SVGID_2_);}
	.st3{fill:url(#SVGID_3_);}
	.st4{fill:url(#SVGID_4_);}
	.st5{fill:url(#SVGID_5_);}
	.st6{fill:url(#SVGID_6_);}
	.st7{fill:url(#SVGID_7_);}
	.st8{fill:url(#SVGID_8_);}
	.st9{fill:url(#SVGID_9_);}
	.st10{fill:url(#SVGID_10_);}
	.st11{fill:url(#SVGID_11_);}
	.st12{fill:url(#SVGID_12_);}
	.st13{fill:url(#SVGID_13_);}
	.st14{fill:url(#SVGID_14_);}
	.st15{fill:url(#SVGID_15_);}
	.st16{fill:url(#SVGID_16_);}
	.st17{fill:url(#SVGID_17_);}
	.st18{fill:#FFFFFF;}
	.st19{fill:none;}
	.st20{fill:url(#SVGID_18_);}
	.st21{fill:url(#SVGID_19_);}
	.st22{fill:url(#SVGID_20_);}
</style>
<g
   id="g228">
	<g
   id="g13">
		<linearGradient
   y2="179.7558"
   x2="127.4327"
   y1="352.3795"
   x1="127.4327"
   gradientUnits="userSpaceOnUse"
   id="SVGID_1_">
			<stop
   id="stop4"
   style="stop-color:#0C497A"
   offset="0.2691" />
			<stop
   id="stop6"
   style="stop-color:#000000"
   offset="1" />
		</linearGradient>
		<path
   id="path9"
   d="M168.5,251.3l-41.1,6l-41.1-6c-10.2,5-19.3,11.8-26.9,20l11.8,54.4l2.1,9.9c6.9,6.9,35.6,20.2,53.9,20.4v0    c0,0,0.1,0,0.1,0c0,0,0.1,0,0.1,0v0c18.2-0.1,46.9-13.4,53.9-20.4l2.1-9.9l11.8-54.4C187.7,263.1,178.6,256.3,168.5,251.3z"
   class="st0" />
		<path
   id="path11"
   d="M127.4,294.8c23.6,0,44.4,12.3,56.1,30.9l11.8-54.4c-7.6-8.2-16.8-15-26.9-20l-41.1,6l-41.1-6    c-10.2,5-19.3,11.8-26.9,20l11.8,54.4C83.1,307.2,103.8,294.8,127.4,294.8z"
   class="st1" />
	</g>
	<g
   id="g29">
		<linearGradient
   y2="275.9628"
   x2="76.1041"
   y1="207.3459"
   x1="76.1041"
   gradientUnits="userSpaceOnUse"
   id="SVGID_2_">
			<stop
   id="stop15"
   style="stop-color:#4D5E6C"
   offset="0" />
			<stop
   id="stop17"
   style="stop-color:#000000"
   offset="1" />
		</linearGradient>
		<ellipse
   id="ellipse20"
   ry="31.6"
   rx="34.3"
   cy="269.6"
   cx="76.1"
   class="st2" />
		<linearGradient
   y2="295.1924"
   x2="76.1041"
   y1="236.841"
   x1="76.1041"
   gradientUnits="userSpaceOnUse"
   id="SVGID_3_">
			<stop
   id="stop22"
   style="stop-color:#4D5E6C"
   offset="0" />
			<stop
   id="stop24"
   style="stop-color:#000000"
   offset="1" />
		</linearGradient>
		<ellipse
   id="ellipse27"
   ry="34.3"
   rx="18.8"
   cy="272.3"
   cx="76.1"
   class="st3" />
	</g>
	<g
   id="g45">
		<linearGradient
   y2="275.9628"
   x2="179.5655"
   y1="207.3459"
   x1="179.5655"
   gradientUnits="userSpaceOnUse"
   id="SVGID_4_">
			<stop
   id="stop31"
   style="stop-color:#4D5E6C"
   offset="0" />
			<stop
   id="stop33"
   style="stop-color:#000000"
   offset="1" />
		</linearGradient>
		<ellipse
   id="ellipse36"
   ry="31.6"
   rx="34.3"
   cy="269.6"
   cx="179.6"
   class="st4" />
		<linearGradient
   y2="295.1924"
   x2="179.5655"
   y1="236.841"
   x1="179.5655"
   gradientUnits="userSpaceOnUse"
   id="SVGID_5_">
			<stop
   id="stop38"
   style="stop-color:#4D5E6C"
   offset="0" />
			<stop
   id="stop40"
   style="stop-color:#000000"
   offset="1" />
		</linearGradient>
		<ellipse
   id="ellipse43"
   ry="34.3"
   rx="18.8"
   cy="272.3"
   cx="179.6"
   class="st5" />
	</g>
	<g
   id="g110">
		<linearGradient
   y2="249.6433"
   x2="127.4327"
   y1="305.3507"
   x1="127.4327"
   gradientUnits="userSpaceOnUse"
   id="SVGID_6_">
			<stop
   id="stop47"
   style="stop-color:#E5006E"
   offset="8.458065e-02" />
			<stop
   id="stop49"
   style="stop-color:#AC0053"
   offset="0.668" />
		</linearGradient>
		<path
   id="path52"
   d="M127.8,28.9l-0.3,127v-127L16.1,7.5c0,127.5,8,199.2,37.5,238.9c19.2,25.8,44,36.5,73.8,36.6v0    c0,0,0.1,0,0.1,0c0,0,0.1,0,0.1,0v0c29.8-0.1,54.6-10.8,73.8-36.6c29.4-39.7,37.5-111.4,37.5-238.9L127.8,28.9z"
   class="st6" />
		<linearGradient
   y2="188.9823"
   x2="75.8786"
   y1="239.482"
   x1="51.6452"
   gradientUnits="userSpaceOnUse"
   id="SVGID_7_">
			<stop
   id="stop54"
   style="stop-color:#E5006E"
   offset="0.1903" />
			<stop
   id="stop56"
   style="stop-color:#AC0053"
   offset="0.7367" />
		</linearGradient>
		<path
   id="path59"
   d="M72.5,196l-26.5-11c-8.4,20.4,2.6,52.4,6.6,59c7.5-1.9,37.9-16.7,46.4-37.1L72.5,196z"
   class="st7" />
		<linearGradient
   y2="224.6145"
   x2="127.6887"
   y1="264.9393"
   x1="128.0084"
   gradientUnits="userSpaceOnUse"
   id="SVGID_8_">
			<stop
   id="stop61"
   style="stop-color:#E5006E"
   offset="0.1903" />
			<stop
   id="stop63"
   style="stop-color:#AC0053"
   offset="0.9722" />
		</linearGradient>
		<path
   id="path66"
   d="M176.6,215.4l-28.5-5.5l-0.1-0.9l-1,0.7l-0.6-0.1l0.1,0.5l-19,12.6l-19.3-12.8l0.1-0.8l-1,0.2l-0.3-0.2l0,0.3    l-28.6,6.1c-2.3,21.9,17.4,49.5,23,54.7c4.5-2.7,17.5-14.1,26.1-28c8.6,13.9,21.6,25.3,26.1,28    C159.2,264.9,181.2,237.5,176.6,215.4z"
   class="st8" />
		<linearGradient
   y2="198.4031"
   x2="183.952"
   y1="240.0581"
   x1="201.8693"
   gradientUnits="userSpaceOnUse"
   id="SVGID_9_">
			<stop
   id="stop68"
   style="stop-color:#E5006E"
   offset="0.1903" />
			<stop
   id="stop70"
   style="stop-color:#AC0053"
   offset="0.7932" />
		</linearGradient>
		<path
   id="path73"
   d="M209.4,185.1l-26.5,11l-26.5,11c8.4,20.4,38.9,35.2,46.4,37.1C206.8,237.4,217.8,205.5,209.4,185.1z"
   class="st9" />
		<linearGradient
   y2="191.155"
   x2="94.5731"
   y1="224.8231"
   x1="77.9473"
   gradientUnits="userSpaceOnUse"
   id="SVGID_10_">
			<stop
   id="stop75"
   style="stop-color:#E5006E"
   offset="0.272" />
			<stop
   id="stop77"
   style="stop-color:#AC0053"
   offset="0.9722" />
		</linearGradient>
		<path
   id="path80"
   d="M99.3,181.6l-26.5-11c-8.4,20.4,2.6,52.4,6.6,59c7.5-1.9,37.9-16.7,46.4-37.1L99.3,181.6z"
   class="st10" />
		<linearGradient
   y2="160.7758"
   x2="79.4084"
   y1="204.9859"
   x1="43.0215"
   gradientUnits="userSpaceOnUse"
   id="SVGID_11_">
			<stop
   id="stop82"
   style="stop-color:#E5006E"
   offset="0.1903" />
			<stop
   id="stop84"
   style="stop-color:#AC0053"
   offset="0.9722" />
		</linearGradient>
		<path
   id="path87"
   d="M78.9,161.5l-20.3-20.3c-15.6,15.6-17.6,49.4-16.5,57c7.6,1.1,41.4-0.9,57-16.5L78.9,161.5z"
   class="st11" />
		<linearGradient
   y2="190.209"
   x2="159.6761"
   y1="225.2795"
   x1="174.0502"
   gradientUnits="userSpaceOnUse"
   id="SVGID_12_">
			<stop
   id="stop89"
   style="stop-color:#E5006E"
   offset="0.4294" />
			<stop
   id="stop91"
   style="stop-color:#AC0053"
   offset="0.9722" />
		</linearGradient>
		<path
   id="path94"
   d="M182.6,170.6l-26.5,11l-26.5,11c8.4,20.4,38.9,35.2,46.4,37.1C180,223,191,191,182.6,170.6z"
   class="st12" />
		<linearGradient
   y2="168.473"
   x2="182.9407"
   y1="197.6766"
   x1="209.8819"
   gradientUnits="userSpaceOnUse"
   id="SVGID_13_">
			<stop
   id="stop96"
   style="stop-color:#E5006E"
   offset="0.1903" />
			<stop
   id="stop98"
   style="stop-color:#AC0053"
   offset="0.9722" />
		</linearGradient>
		<path
   id="path101"
   d="M196.7,141.2l-20.3,20.3l-20.3,20.3c15.6,15.6,49.4,17.6,57,16.5C214.3,190.6,212.3,156.8,196.7,141.2z"
   class="st13" />
		<linearGradient
   y2="173.4583"
   x2="127.2987"
   y1="239.8991"
   x1="127.2987"
   gradientUnits="userSpaceOnUse"
   id="SVGID_14_">
			<stop
   id="stop103"
   style="stop-color:#E5006E"
   offset="0.1903" />
			<stop
   id="stop105"
   style="stop-color:#AC0053"
   offset="0.9722" />
		</linearGradient>
		<path
   id="path108"
   d="M127.3,172.2l-28.7,9.5c0,22.1,22.6,47.4,28.7,52c6.1-4.6,28.7-29.9,28.7-52L127.3,172.2z"
   class="st14" />
	</g>
	<linearGradient
   y2="59.9138"
   x2="127.4327"
   y1="187.7258"
   x1="127.4327"
   gradientUnits="userSpaceOnUse"
   id="SVGID_15_">
		<stop
   id="stop112"
   style="stop-color:#4D5E6C"
   offset="8.458065e-02" />
		<stop
   id="stop114"
   style="stop-color:#000000"
   offset="0.668" />
	</linearGradient>
	<path
   id="path117"
   d="M213.1,100.8c0-47.3-38.3-85.6-85.5-85.8v0c0,0-0.1,0-0.1,0c0,0-0.1,0-0.1,0v0c-47.2,0.1-85.5,38.5-85.5,85.8   s38.3,85.6,85.5,85.8v0c0,0,0.1,0,0.1,0c0,0,0.1,0,0.1,0v0C174.8,186.4,213.1,148.1,213.1,100.8z"
   class="st15" />
	<path
   id="path119"
   d="M127.4,97c-51.4,0-93,41.6-93,93s42.2,94.5,91.5,93c-36.5,1.1-65-29.8-65-66.5c0-36.7,29.8-66.5,66.5-66.5   c36.7,0,66.5,29.8,66.5,66.5c0,36.7-28.6,68.1-65.3,66.5c47.7,2.1,91.1-40.2,91.8-93C221.1,138.7,178.8,97,127.4,97z"
   class="st1" />
	<linearGradient
   y2="-70.5017"
   x2="127.4327"
   y1="276.458"
   x1="127.4327"
   gradientUnits="userSpaceOnUse"
   id="SVGID_16_">
		<stop
   id="stop121"
   style="stop-color:#0C497A"
   offset="0.1786" />
		<stop
   id="stop123"
   style="stop-color:#0C4878"
   offset="0.4126" />
		<stop
   id="stop125"
   style="stop-color:#0B4370"
   offset="0.5513" />
		<stop
   id="stop127"
   style="stop-color:#0A3A61"
   offset="0.6651" />
		<stop
   id="stop129"
   style="stop-color:#082E4D"
   offset="0.7655" />
		<stop
   id="stop131"
   style="stop-color:#051F33"
   offset="0.8569" />
		<stop
   id="stop133"
   style="stop-color:#020C14"
   offset="0.9408" />
		<stop
   id="stop135"
   style="stop-color:#000000"
   offset="0.9842" />
	</linearGradient>
	<path
   id="path138"
   d="M254.9,0C212,11.2,156.4,15,127.4,15C98.4,15,42.8,11.2,0,0c26.8,44.5,8.3,72,16.4,136.2   c8,64.3,22.5,90.2,37.6,110.4c-3.1-10.7-4.8-22.3-4.8-34.4c0-55.2,35-99.9,78.3-100c43.2,0.1,78.3,44.9,78.3,100   c0,12.1-1.7,23.7-4.8,34.4c15.1-20.2,29.5-46.1,37.6-110.4C246.5,72,228.1,44.5,254.9,0z"
   class="st16" />
	<g
   id="g157">
		<linearGradient
   y2="-35.5665"
   x2="127.4327"
   y1="134.1781"
   x1="127.4327"
   gradientUnits="userSpaceOnUse"
   id="SVGID_17_">
			<stop
   id="stop140"
   style="stop-color:#8CAFCB"
   offset="0.1786" />
			<stop
   id="stop142"
   style="stop-color:#8EB1CD"
   offset="0.3674" />
			<stop
   id="stop144"
   style="stop-color:#95BAD3"
   offset="0.4792" />
			<stop
   id="stop146"
   style="stop-color:#A2C8DD"
   offset="0.5707" />
			<stop
   id="stop148"
   style="stop-color:#ACD4E5"
   offset="0.623" />
		</linearGradient>
		<path
   id="path151"
   d="M127.4,83.4C123.5,9.5,33.1,29.9,0.3,0c0,86.6,16.9,141,69.6,146.3c30.5,1.1,53.3-4.1,57.6-43.2    c4.2,39.1,27.1,44.3,57.6,43.2C237.7,141,254.6,86.6,254.6,0C221.7,29.9,131.3,9.5,127.4,83.4z"
   class="st17" />
		<ellipse
   id="ellipse153"
   ry="52.4"
   rx="52.5"
   cy="84.6"
   cx="186.3"
   class="st18" />
		<ellipse
   id="ellipse155"
   ry="52.4"
   rx="52.5"
   cy="84.6"
   cx="69.1"
   class="st18" />
	</g>
	<path
   id="path159"
   d="M183.6,325.7l-2.1,9.9c-6.9,6.9-35.6,20.2-53.9,20.4v0c0,0-0.1,0-0.1,0c0,0-0.1,0-0.1,0v0   c-18.2-0.1-46.9-13.4-53.9-20.4l-2.1-9.9"
   class="st19" />
	<radialGradient
   gradientUnits="userSpaceOnUse"
   r="39.5126"
   cy="86.7694"
   cx="177.3036"
   id="SVGID_18_">
		<stop
   id="stop161"
   style="stop-color:#D37B1C"
   offset="7.585558e-02" />
		<stop
   id="stop163"
   style="stop-color:#D47D1C"
   offset="8.152291e-02" />
		<stop
   id="stop165"
   style="stop-color:#E79E1B"
   offset="0.1864" />
		<stop
   id="stop167"
   style="stop-color:#F4B51A"
   offset="0.2872" />
		<stop
   id="stop169"
   style="stop-color:#FCC31A"
   offset="0.3813" />
		<stop
   id="stop171"
   style="stop-color:#FFC81A"
   offset="0.4618" />
		<stop
   id="stop173"
   style="stop-color:#F9BE1A"
   offset="0.5612" />
		<stop
   id="stop175"
   style="stop-color:#E9A21B"
   offset="0.7315" />
		<stop
   id="stop177"
   style="stop-color:#D37B1C"
   offset="0.928" />
	</radialGradient>
	<circle
   id="circle180"
   r="32.1"
   cy="86.8"
   cx="177.3"
   class="st20" />
	<radialGradient
   gradientUnits="userSpaceOnUse"
   r="39.5126"
   cy="86.7694"
   cx="78.098"
   id="SVGID_19_">
		<stop
   id="stop182"
   style="stop-color:#D37B1C"
   offset="7.585558e-02" />
		<stop
   id="stop184"
   style="stop-color:#D47D1C"
   offset="8.152291e-02" />
		<stop
   id="stop186"
   style="stop-color:#E79E1B"
   offset="0.1864" />
		<stop
   id="stop188"
   style="stop-color:#F4B51A"
   offset="0.2872" />
		<stop
   id="stop190"
   style="stop-color:#FCC31A"
   offset="0.3813" />
		<stop
   id="stop192"
   style="stop-color:#FFC81A"
   offset="0.4618" />
		<stop
   id="stop194"
   style="stop-color:#F9BE1A"
   offset="0.5612" />
		<stop
   id="stop196"
   style="stop-color:#E9A21B"
   offset="0.7315" />
		<stop
   id="stop198"
   style="stop-color:#D37B1C"
   offset="0.928" />
	</radialGradient>
	<circle
   id="circle201"
   r="32.1"
   cy="86.8"
   cx="78.1"
   class="st21" />
	<circle
   id="circle203"
   r="15.2"
   cy="86.8"
   cx="174.9" />
	<circle
   id="circle205"
   r="7"
   cy="81.2"
   cx="174.9"
   class="st18" />
	<linearGradient
   y2="132.9452"
   x2="163.5663"
   y1="132.9452"
   x1="88.0232"
   gradientUnits="userSpaceOnUse"
   id="SVGID_20_">
		<stop
   id="stop207"
   style="stop-color:#000000"
   offset="0.2492" />
		<stop
   id="stop209"
   style="stop-color:#161B1F"
   offset="0.3914" />
		<stop
   id="stop211"
   style="stop-color:#272F36"
   offset="0.5181" />
		<stop
   id="stop213"
   style="stop-color:#191F23"
   offset="0.6282" />
		<stop
   id="stop215"
   style="stop-color:#000000"
   offset="0.7924" />
	</linearGradient>
	<path
   id="path218"
   d="M152.2,142.7c-5.9-16.8-13.5-31.4-24.6-41.1v-0.2c0,0-0.1,0.1-0.1,0.1c0,0-0.1-0.1-0.1-0.1v0.2   c-11.2,9.7-18.7,24.3-24.6,41.1c11.9,0,17,13.8,24.6,21.6v0.3c0,0,0.1-0.1,0.1-0.1c0,0,0.1,0.1,0.1,0.1v-0.3   C135.2,156.5,140.3,142.7,152.2,142.7z"
   class="st22" />
	<circle
   id="circle220"
   r="15.2"
   cy="86.8"
   cx="80.5" />
	<circle
   id="circle222"
   r="7"
   cy="81.2"
   cx="80.5"
   class="st18" />
	<path
   id="path224"
   d="M78.1,54.7C60.4,54.7,46,69,46,86.8c0,17.7,14.4,32.1,32.1,32.1s32.1-14.4,32.1-32.1   C110.2,69,95.8,54.7,78.1,54.7z M78.1,112.6c-15.1,0-27.3-12.2-27.3-27.3c0-15.1,12.4-29.5,27.5-29.5s30,14.4,30,29.5   C108.3,100.3,93.2,112.6,78.1,112.6z"
   class="st1" />
	<path
   id="path226"
   d="M145.2,86.8c0,17.7,14.4,32.1,32.1,32.1s32.1-14.4,32.1-32.1c0-17.7-14.4-32.1-32.1-32.1S145.2,69,145.2,86.8z    M147.1,85.2c0-15.1,14.9-29.5,30-29.5s27.5,14.4,27.5,29.5c0,15.1-12.2,27.3-27.3,27.3S147.1,100.3,147.1,85.2z"
   class="st1" />
</g>
</svg>