<?xml version="1.0" encoding="UTF-8" standalone="no"?>
<svg
   xmlns:dc="http://purl.org/dc/elements/1.1/"
   xmlns:cc="http://creativecommons.org/ns#"
   xmlns:rdf="http://www.w3.org/1999/02/22-rdf-syntax-ns#"
   xmlns:svg="http://www.w3.org/2000/svg"
   xmlns="http://www.w3.org/2000/svg"
   xml:space="preserve"
   style="enable-background:new 0 0 1634.9 356;"
   viewBox="0 0 1634.9 356"
   y="0px"
   x="0px"
   id="Ebene_1"
   version="1.1"><metadata
   id="metadata390"><rdf:RDF><cc:Work
       rdf:about=""><dc:format>image/svg+xml</dc:format><dc:type
         rdf:resource="http://purl.org/dc/dcmitype/StillImage" /><dc:title></dc:title></cc:Work></rdf:RDF></metadata><defs
   id="defs388" />
<style
   id="style2"
   type="text/css">
	.st0{fill:url(#SVGID_1_);}
	.st1{fill:url(#SVGID_2_);}
	.st2{fill:url(#SVGID_3_);}
	.st3{fill:url(#SVGID_4_);}
	.st4{fill:url(#SVGID_5_);}
	.st5{fill:url(#SVGID_6_);}
	.st6{fill:url(#SVGID_7_);}
	.st7{fill:url(#SVGID_8_);}
	.st8{fill:url(#SVGID_9_);}
	.st9{fill:url(#SVGID_10_);}
	.st10{opacity:0.2;}
	.st11{fill:url(#SVGID_11_);}
	.st12{fill:url(#SVGID_12_);}
	.st13{fill:url(#SVGID_13_);}
	.st14{fill:url(#SVGID_14_);}
	.st15{fill:url(#SVGID_15_);}
	.st16{fill:url(#SVGID_16_);}
	.st17{fill:url(#SVGID_17_);}
	.st18{fill:url(#SVGID_18_);}
	.st19{fill:url(#SVGID_19_);}
	.st20{fill:url(#SVGID_20_);}
	.st21{fill:url(#SVGID_21_);}
	.st22{fill:url(#SVGID_22_);}
	.st23{fill:url(#SVGID_23_);}
	.st24{fill:url(#SVGID_24_);}
	.st25{fill:url(#SVGID_25_);}
	.st26{fill:url(#SVGID_26_);}
	.st27{fill:#FFFFFF;}
	.st28{fill:none;}
	.st29{fill:url(#SVGID_27_);}
	.st30{fill:url(#SVGID_28_);}
	.st31{fill:url(#SVGID_29_);}
</style>
<g
   id="g157">
	
		<linearGradient
   gradientTransform="matrix(1 0 0 -1 0 358)"
   y2="339.8306"
   x2="372.1867"
   y1="-30.022"
   x1="369.1552"
   gradientUnits="userSpaceOnUse"
   id="SVGID_1_">
		<stop
   id="stop4"
   style="stop-color:#0C497A"
   offset="0" />
		<stop
   id="stop6"
   style="stop-color:#0C4777"
   offset="0.2003" />
		<stop
   id="stop8"
   style="stop-color:#0B416C"
   offset="0.3757" />
		<stop
   id="stop10"
   style="stop-color:#09365A"
   offset="0.5416" />
		<stop
   id="stop12"
   style="stop-color:#072741"
   offset="0.7018" />
		<stop
   id="stop14"
   style="stop-color:#031421"
   offset="0.8563" />
		<stop
   id="stop16"
   style="stop-color:#000000"
   offset="0.9842" />
	</linearGradient>
	<path
   id="path19"
   d="M384.6,183.9l41.3-81.3h-26.6l-36.8,75.5c-2.4-0.4-10.1-0.7-23-1v-74.4h-24.6v182.9h24.6v-86.7   c24.2,0.2,40.6,4.3,49.2,12.4s12.9,22,12.9,41.7v32.7h25.1v-32.7C426.7,217.1,412.6,194.1,384.6,183.9z"
   class="st0" />
	
		<linearGradient
   gradientTransform="matrix(1 0 0 -1 0 358)"
   y2="338.6228"
   x2="519.5386"
   y1="-31.2299"
   x1="516.5071"
   gradientUnits="userSpaceOnUse"
   id="SVGID_2_">
		<stop
   id="stop21"
   style="stop-color:#0C497A"
   offset="0" />
		<stop
   id="stop23"
   style="stop-color:#0C4777"
   offset="0.2003" />
		<stop
   id="stop25"
   style="stop-color:#0B416C"
   offset="0.3757" />
		<stop
   id="stop27"
   style="stop-color:#09365A"
   offset="0.5416" />
		<stop
   id="stop29"
   style="stop-color:#072741"
   offset="0.7018" />
		<stop
   id="stop31"
   style="stop-color:#031421"
   offset="0.8563" />
		<stop
   id="stop33"
   style="stop-color:#000000"
   offset="0.9842" />
	</linearGradient>
	<path
   id="path36"
   d="M473.5,122.5c-12.1,13.2-18.2,29.3-18.2,48.1v114.9h23.3v-66.9c5-5.9,10.8-10.1,17.1-12.5   c6.4-2.4,14.6-3.7,24.7-3.7h23.8v-23h-23.8c-18.1,0-32,5.1-41.8,15.4v-22.2c0-16.4,3.8-28.3,11.4-35.8c7.6-7.5,17.7-11.2,30.4-11.2   h35.3v159.9h24.6V102.6h-59.8C501.3,102.6,485.6,109.2,473.5,122.5z"
   class="st1" />
	
		<linearGradient
   gradientTransform="matrix(1 0 0 -1 0 358)"
   y2="337.4189"
   x2="666.4177"
   y1="-32.4338"
   x1="663.386"
   gradientUnits="userSpaceOnUse"
   id="SVGID_3_">
		<stop
   id="stop38"
   style="stop-color:#0C497A"
   offset="0" />
		<stop
   id="stop40"
   style="stop-color:#0C4777"
   offset="0.2003" />
		<stop
   id="stop42"
   style="stop-color:#0B416C"
   offset="0.3757" />
		<stop
   id="stop44"
   style="stop-color:#09365A"
   offset="0.5416" />
		<stop
   id="stop46"
   style="stop-color:#072741"
   offset="0.7018" />
		<stop
   id="stop48"
   style="stop-color:#031421"
   offset="0.8563" />
		<stop
   id="stop50"
   style="stop-color:#000000"
   offset="0.9842" />
	</linearGradient>
	<path
   id="path53"
   d="M707.2,198c-4.2-3.8-8.4-6.9-12.5-9.3s-9.2-4.7-15.2-6.9c-13.2-4.9-23.7-10-31.5-15.3s-11.6-11.8-11.6-19.5   c0-14.3,8.8-21.4,26.4-21.4h46.2v-23h-47.8c-15.2,0-27.4,3.6-36.8,10.8c-9.4,7.2-14.1,18.2-14.1,32.8c0,23.7,13.7,40.8,41,51.2   c0.9,0.4,2.1,0.8,3.7,1.3c5.8,2.1,10.7,4.1,14.8,6s8.1,4.2,12,6.8c3.9,2.6,6.9,5.7,9,9.3c2.1,3.6,3.1,7.7,3.1,12.4   c0,9.6-3.8,16.9-11.2,21.8c-7.5,5-17.2,7.5-29,7.5h-40v23h40.8c4.5,0,8-0.1,10.5-0.3c5.8-0.2,11.6-1.3,17.6-3.3   c6-2,11.9-5,17.6-8.9c5.8-3.9,10.5-9.3,14.1-16.2c3.7-6.9,5.5-14.7,5.5-23.4c0-7.8-1-14.8-3.1-20.8   C714.5,206.7,711.4,201.8,707.2,198z"
   class="st2" />
	
		<linearGradient
   gradientTransform="matrix(1 0 0 -1 0 358)"
   y2="336.3396"
   x2="798.0839"
   y1="-33.513"
   x1="795.0523"
   gradientUnits="userSpaceOnUse"
   id="SVGID_4_">
		<stop
   id="stop55"
   style="stop-color:#0C497A"
   offset="0" />
		<stop
   id="stop57"
   style="stop-color:#0C4777"
   offset="0.2003" />
		<stop
   id="stop59"
   style="stop-color:#0B416C"
   offset="0.3757" />
		<stop
   id="stop61"
   style="stop-color:#09365A"
   offset="0.5416" />
		<stop
   id="stop63"
   style="stop-color:#072741"
   offset="0.7018" />
		<stop
   id="stop65"
   style="stop-color:#031421"
   offset="0.8563" />
		<stop
   id="stop67"
   style="stop-color:#000000"
   offset="0.9842" />
	</linearGradient>
	<path
   id="path70"
   d="M838.9,198c-4.2-3.8-8.4-6.9-12.5-9.3s-9.2-4.7-15.2-6.9c-13.2-4.9-23.7-10-31.5-15.3s-11.6-11.8-11.6-19.5   c0-14.3,8.8-21.4,26.4-21.4h46.2v-23h-47.8c-15.2,0-27.4,3.6-36.8,10.8c-9.4,7.2-14.1,18.2-14.1,32.8c0,23.7,13.7,40.8,41,51.2   c0.9,0.4,2.1,0.8,3.7,1.3c5.8,2.1,10.7,4.1,14.8,6s8.1,4.2,12,6.8c3.9,2.6,6.9,5.7,9,9.3c2.1,3.6,3.1,7.7,3.1,12.4   c0,9.6-3.8,16.9-11.2,21.8c-7.5,5-17.2,7.5-29,7.5h-40v23h40.8c4.5,0,8-0.1,10.5-0.3c5.8-0.2,11.6-1.3,17.6-3.3   c6-2,11.9-5,17.6-8.9c5.8-3.9,10.5-9.3,14.1-16.2c3.7-6.9,5.5-14.7,5.5-23.4c0-7.8-1-14.8-3.1-20.8   C846.2,206.7,843.1,201.8,838.9,198z"
   class="st3" />
	
		<linearGradient
   gradientTransform="matrix(1 0 0 -1 0 358)"
   y2="335.1626"
   x2="941.6802"
   y1="-34.69"
   x1="938.6486"
   gradientUnits="userSpaceOnUse"
   id="SVGID_5_">
		<stop
   id="stop72"
   style="stop-color:#0C497A"
   offset="0" />
		<stop
   id="stop74"
   style="stop-color:#0C4777"
   offset="0.2003" />
		<stop
   id="stop76"
   style="stop-color:#0B416C"
   offset="0.3757" />
		<stop
   id="stop78"
   style="stop-color:#09365A"
   offset="0.5416" />
		<stop
   id="stop80"
   style="stop-color:#072741"
   offset="0.7018" />
		<stop
   id="stop82"
   style="stop-color:#031421"
   offset="0.8563" />
		<stop
   id="stop84"
   style="stop-color:#000000"
   offset="0.9842" />
	</linearGradient>
	<path
   id="path87"
   d="M895.7,122.5c-12.1,13.2-18.2,29.3-18.2,48.1v114.9h23.3v-66.9c5-5.9,10.8-10.1,17.1-12.5   c6.4-2.4,14.6-3.7,24.7-3.7h23.8v-23h-23.8c-18.1,0-32,5.1-41.8,15.4v-22.2c0-16.4,3.8-28.3,11.4-35.8c7.6-7.5,17.7-11.2,30.4-11.2   h35.3v159.9h24.6V102.6h-59.8C923.5,102.6,907.8,109.2,895.7,122.5z"
   class="st4" />
	
		<linearGradient
   gradientTransform="matrix(1 0 0 -1 0 358)"
   y2="333.8256"
   x2="1104.7924"
   y1="-36.027"
   x1="1101.7609"
   gradientUnits="userSpaceOnUse"
   id="SVGID_6_">
		<stop
   id="stop89"
   style="stop-color:#0C497A"
   offset="0" />
		<stop
   id="stop91"
   style="stop-color:#0C4777"
   offset="0.2003" />
		<stop
   id="stop93"
   style="stop-color:#0B416C"
   offset="0.3757" />
		<stop
   id="stop95"
   style="stop-color:#09365A"
   offset="0.5416" />
		<stop
   id="stop97"
   style="stop-color:#072741"
   offset="0.7018" />
		<stop
   id="stop99"
   style="stop-color:#031421"
   offset="0.8563" />
		<stop
   id="stop101"
   style="stop-color:#000000"
   offset="0.9842" />
	</linearGradient>
	<path
   id="path104"
   d="M1151.9,117.1c-10.6-9.7-26.7-14.5-48.3-14.5H1039v182.9h24.6V125.6h40.2c11.8,0,21.4,2.7,28.6,8   c7.2,5.3,10.8,13.9,10.8,25.7v126.2h24.6V162.7C1167.8,142,1162.5,126.8,1151.9,117.1z"
   class="st5" />
	
		<linearGradient
   gradientTransform="matrix(1 0 0 -1 0 358)"
   y2="332.4968"
   x2="1266.8969"
   y1="-37.3558"
   x1="1263.8652"
   gradientUnits="userSpaceOnUse"
   id="SVGID_7_">
		<stop
   id="stop106"
   style="stop-color:#0C497A"
   offset="0" />
		<stop
   id="stop108"
   style="stop-color:#0C4777"
   offset="0.2003" />
		<stop
   id="stop110"
   style="stop-color:#0B416C"
   offset="0.3757" />
		<stop
   id="stop112"
   style="stop-color:#09365A"
   offset="0.5416" />
		<stop
   id="stop114"
   style="stop-color:#072741"
   offset="0.7018" />
		<stop
   id="stop116"
   style="stop-color:#031421"
   offset="0.8563" />
		<stop
   id="stop118"
   style="stop-color:#000000"
   offset="0.9842" />
	</linearGradient>
	<path
   id="path121"
   d="M1238.6,102.6h-35.5v182.9h35.5c28,0,50-8,66-23.9s24-38.4,24.2-67.5c-0.2-29.1-8.2-51.6-24.2-67.5   C1288.6,110.6,1266.6,102.6,1238.6,102.6z M1286.3,243.3c-10.4,12.8-25.2,19.2-44.5,19.2h-14.1V125.6h14.1   c19.3,0,34.2,6.4,44.5,19.2s15.7,29.2,16.1,49.2C1302,214.1,1296.6,230.5,1286.3,243.3z"
   class="st6" />
	
		<linearGradient
   gradientTransform="matrix(1 0 0 -1 0 358)"
   y2="331.222"
   x2="1422.4325"
   y1="-38.6307"
   x1="1419.4009"
   gradientUnits="userSpaceOnUse"
   id="SVGID_8_">
		<stop
   id="stop123"
   style="stop-color:#0C497A"
   offset="0" />
		<stop
   id="stop125"
   style="stop-color:#0C4777"
   offset="0.2003" />
		<stop
   id="stop127"
   style="stop-color:#0B416C"
   offset="0.3757" />
		<stop
   id="stop129"
   style="stop-color:#09365A"
   offset="0.5416" />
		<stop
   id="stop131"
   style="stop-color:#072741"
   offset="0.7018" />
		<stop
   id="stop133"
   style="stop-color:#031421"
   offset="0.8563" />
		<stop
   id="stop135"
   style="stop-color:#000000"
   offset="0.9842" />
	</linearGradient>
	<path
   id="path138"
   d="M1473.4,180.7c5.2-7,7.8-15.9,7.8-26.9c0-17.1-5.2-30.3-15.5-39.7s-25.2-14.1-44.5-14.1   c-19.2,0-33.9,5.8-44.3,17.5c-10.4,11.7-15.5,28-15.5,49.1v118.9h24.6V166.6c0-15.5,3-26.6,9-33.4c6-6.8,15-10.2,27-10.2   c10.4,0,18.8,2.7,25.2,8.1c6.4,5.4,9.5,12.5,9.5,21.4c0,9.4-3.2,17.5-9.7,24.3c-6.4,6.8-18,10.2-34.8,10.2h-14.9v23h14.1   c14.1,0,24.9,3.7,32.4,11.1c7.5,7.4,11.2,17.7,11.2,31v33.4h24.6v-19.6c0-21.4-2.2-36.8-6.7-46.1c-4.4-9.3-13.2-16.5-26.3-21.6v-1   C1459.3,193.2,1468.2,187.7,1473.4,180.7z"
   class="st7" />
	
		<linearGradient
   gradientTransform="matrix(1 0 0 -1 0 358)"
   y2="329.9788"
   x2="1574.0927"
   y1="-39.8738"
   x1="1571.061"
   gradientUnits="userSpaceOnUse"
   id="SVGID_9_">
		<stop
   id="stop140"
   style="stop-color:#0C497A"
   offset="0" />
		<stop
   id="stop142"
   style="stop-color:#0C4777"
   offset="0.2003" />
		<stop
   id="stop144"
   style="stop-color:#0B416C"
   offset="0.3757" />
		<stop
   id="stop146"
   style="stop-color:#09365A"
   offset="0.5416" />
		<stop
   id="stop148"
   style="stop-color:#072741"
   offset="0.7018" />
		<stop
   id="stop150"
   style="stop-color:#031421"
   offset="0.8563" />
		<stop
   id="stop152"
   style="stop-color:#000000"
   offset="0.9842" />
	</linearGradient>
	<path
   id="path155"
   d="M1575.1,102.6c-19.2,0-34.8,6.6-46.9,19.8c-12.1,13.2-18.2,29.3-18.2,48.1v114.9h23.3v-66.9   c5.1-5.9,10.8-10.1,17.1-12.5c6.4-2.4,14.6-3.7,24.7-3.7h23.8v-23h-23.8c-18.1,0-32.1,5.1-41.8,15.4v-22.2   c0-16.4,3.8-28.3,11.4-35.8c7.6-7.5,17.7-11.2,30.4-11.2h35.3v159.9h24.6V102.6H1575.1z"
   class="st8" />
</g>
<g
   id="g383">
	<g
   id="g168">
		<linearGradient
   y2="179.7558"
   x2="127.4327"
   y1="352.3795"
   x1="127.4327"
   gradientUnits="userSpaceOnUse"
   id="SVGID_10_">
			<stop
   id="stop159"
   style="stop-color:#0C497A"
   offset="0.2691" />
			<stop
   id="stop161"
   style="stop-color:#000000"
   offset="1" />
		</linearGradient>
		<path
   id="path164"
   d="M168.5,251.3l-41.1,6l-41.1-6c-10.2,5-19.3,11.8-26.9,20l11.8,54.4l2.1,9.9c6.9,6.9,35.6,20.2,53.9,20.4v0    c0,0,0.1,0,0.1,0c0,0,0.1,0,0.1,0v0c18.2-0.1,46.9-13.4,53.9-20.4l2.1-9.9l11.8-54.4C187.7,263.1,178.6,256.3,168.5,251.3z"
   class="st9" />
		<path
   id="path166"
   d="M127.4,294.8c23.6,0,44.4,12.3,56.1,30.9l11.8-54.4c-7.6-8.2-16.8-15-26.9-20l-41.1,6l-41.1-6    c-10.2,5-19.3,11.8-26.9,20l11.8,54.4C83.1,307.2,103.8,294.8,127.4,294.8z"
   class="st10" />
	</g>
	<g
   id="g184">
		<linearGradient
   y2="275.9628"
   x2="76.1041"
   y1="207.3459"
   x1="76.1041"
   gradientUnits="userSpaceOnUse"
   id="SVGID_11_">
			<stop
   id="stop170"
   style="stop-color:#4D5E6C"
   offset="0" />
			<stop
   id="stop172"
   style="stop-color:#000000"
   offset="1" />
		</linearGradient>
		<ellipse
   id="ellipse175"
   ry="31.6"
   rx="34.3"
   cy="269.6"
   cx="76.1"
   class="st11" />
		<linearGradient
   y2="295.1924"
   x2="76.1041"
   y1="236.841"
   x1="76.1041"
   gradientUnits="userSpaceOnUse"
   id="SVGID_12_">
			<stop
   id="stop177"
   style="stop-color:#4D5E6C"
   offset="0" />
			<stop
   id="stop179"
   style="stop-color:#000000"
   offset="1" />
		</linearGradient>
		<ellipse
   id="ellipse182"
   ry="34.3"
   rx="18.8"
   cy="272.3"
   cx="76.1"
   class="st12" />
	</g>
	<g
   id="g200">
		<linearGradient
   y2="275.9628"
   x2="179.5655"
   y1="207.3459"
   x1="179.5655"
   gradientUnits="userSpaceOnUse"
   id="SVGID_13_">
			<stop
   id="stop186"
   style="stop-color:#4D5E6C"
   offset="0" />
			<stop
   id="stop188"
   style="stop-color:#000000"
   offset="1" />
		</linearGradient>
		<ellipse
   id="ellipse191"
   ry="31.6"
   rx="34.3"
   cy="269.6"
   cx="179.6"
   class="st13" />
		<linearGradient
   y2="295.1924"
   x2="179.5655"
   y1="236.841"
   x1="179.5655"
   gradientUnits="userSpaceOnUse"
   id="SVGID_14_">
			<stop
   id="stop193"
   style="stop-color:#4D5E6C"
   offset="0" />
			<stop
   id="stop195"
   style="stop-color:#000000"
   offset="1" />
		</linearGradient>
		<ellipse
   id="ellipse198"
   ry="34.3"
   rx="18.8"
   cy="272.3"
   cx="179.6"
   class="st14" />
	</g>
	<g
   id="g265">
		<linearGradient
   y2="249.6433"
   x2="127.4327"
   y1="305.3507"
   x1="127.4327"
   gradientUnits="userSpaceOnUse"
   id="SVGID_15_">
			<stop
   id="stop202"
   style="stop-color:#E5006E"
   offset="8.458065e-02" />
			<stop
   id="stop204"
   style="stop-color:#AC0053"
   offset="0.668" />
		</linearGradient>
		<path
   id="path207"
   d="M127.8,28.9l-0.3,127v-127L16.1,7.5c0,127.5,8,199.2,37.5,238.9c19.2,25.8,44,36.5,73.8,36.6v0    c0,0,0.1,0,0.1,0c0,0,0.1,0,0.1,0v0c29.8-0.1,54.6-10.8,73.8-36.6c29.4-39.7,37.5-111.4,37.5-238.9L127.8,28.9z"
   class="st15" />
		<linearGradient
   y2="188.9823"
   x2="75.8786"
   y1="239.482"
   x1="51.6452"
   gradientUnits="userSpaceOnUse"
   id="SVGID_16_">
			<stop
   id="stop209"
   style="stop-color:#E5006E"
   offset="0.1903" />
			<stop
   id="stop211"
   style="stop-color:#AC0053"
   offset="0.7367" />
		</linearGradient>
		<path
   id="path214"
   d="M72.5,196l-26.5-11c-8.4,20.4,2.6,52.4,6.6,59c7.5-1.9,37.9-16.7,46.4-37.1L72.5,196z"
   class="st16" />
		<linearGradient
   y2="224.6145"
   x2="127.6887"
   y1="264.9393"
   x1="128.0084"
   gradientUnits="userSpaceOnUse"
   id="SVGID_17_">
			<stop
   id="stop216"
   style="stop-color:#E5006E"
   offset="0.1903" />
			<stop
   id="stop218"
   style="stop-color:#AC0053"
   offset="0.9722" />
		</linearGradient>
		<path
   id="path221"
   d="M176.6,215.4l-28.5-5.5l-0.1-0.9l-1,0.7l-0.6-0.1l0.1,0.5l-19,12.6l-19.3-12.8l0.1-0.8l-1,0.2l-0.3-0.2    l0,0.3l-28.6,6.1c-2.3,21.9,17.4,49.5,23,54.7c4.5-2.7,17.5-14.1,26.1-28c8.6,13.9,21.6,25.3,26.1,28    C159.2,264.9,181.2,237.5,176.6,215.4z"
   class="st17" />
		<linearGradient
   y2="198.4031"
   x2="183.952"
   y1="240.0581"
   x1="201.8693"
   gradientUnits="userSpaceOnUse"
   id="SVGID_18_">
			<stop
   id="stop223"
   style="stop-color:#E5006E"
   offset="0.1903" />
			<stop
   id="stop225"
   style="stop-color:#AC0053"
   offset="0.7932" />
		</linearGradient>
		<path
   id="path228"
   d="M209.4,185.1l-26.5,11l-26.5,11c8.4,20.4,38.9,35.2,46.4,37.1C206.8,237.4,217.8,205.5,209.4,185.1z"
   class="st18" />
		<linearGradient
   y2="191.155"
   x2="94.5731"
   y1="224.8231"
   x1="77.9473"
   gradientUnits="userSpaceOnUse"
   id="SVGID_19_">
			<stop
   id="stop230"
   style="stop-color:#E5006E"
   offset="0.272" />
			<stop
   id="stop232"
   style="stop-color:#AC0053"
   offset="0.9722" />
		</linearGradient>
		<path
   id="path235"
   d="M99.3,181.6l-26.5-11c-8.4,20.4,2.6,52.4,6.6,59c7.5-1.9,37.9-16.7,46.4-37.1L99.3,181.6z"
   class="st19" />
		<linearGradient
   y2="160.7758"
   x2="79.4084"
   y1="204.9859"
   x1="43.0215"
   gradientUnits="userSpaceOnUse"
   id="SVGID_20_">
			<stop
   id="stop237"
   style="stop-color:#E5006E"
   offset="0.1903" />
			<stop
   id="stop239"
   style="stop-color:#AC0053"
   offset="0.9722" />
		</linearGradient>
		<path
   id="path242"
   d="M78.9,161.5l-20.3-20.3c-15.6,15.6-17.6,49.4-16.5,57c7.6,1.1,41.4-0.9,57-16.5L78.9,161.5z"
   class="st20" />
		<linearGradient
   y2="190.209"
   x2="159.6761"
   y1="225.2795"
   x1="174.0502"
   gradientUnits="userSpaceOnUse"
   id="SVGID_21_">
			<stop
   id="stop244"
   style="stop-color:#E5006E"
   offset="0.4294" />
			<stop
   id="stop246"
   style="stop-color:#AC0053"
   offset="0.9722" />
		</linearGradient>
		<path
   id="path249"
   d="M182.6,170.6l-26.5,11l-26.5,11c8.4,20.4,38.9,35.2,46.4,37.1C180,223,191,191,182.6,170.6z"
   class="st21" />
		<linearGradient
   y2="168.473"
   x2="182.9407"
   y1="197.6766"
   x1="209.8819"
   gradientUnits="userSpaceOnUse"
   id="SVGID_22_">
			<stop
   id="stop251"
   style="stop-color:#E5006E"
   offset="0.1903" />
			<stop
   id="stop253"
   style="stop-color:#AC0053"
   offset="0.9722" />
		</linearGradient>
		<path
   id="path256"
   d="M196.7,141.2l-20.3,20.3l-20.3,20.3c15.6,15.6,49.4,17.6,57,16.5C214.3,190.6,212.3,156.8,196.7,141.2z"
   class="st22" />
		<linearGradient
   y2="173.4583"
   x2="127.2987"
   y1="239.8991"
   x1="127.2987"
   gradientUnits="userSpaceOnUse"
   id="SVGID_23_">
			<stop
   id="stop258"
   style="stop-color:#E5006E"
   offset="0.1903" />
			<stop
   id="stop260"
   style="stop-color:#AC0053"
   offset="0.9722" />
		</linearGradient>
		<path
   id="path263"
   d="M127.3,172.2l-28.7,9.5c0,22.1,22.6,47.4,28.7,52c6.1-4.6,28.7-29.9,28.7-52L127.3,172.2z"
   class="st23" />
	</g>
	<linearGradient
   y2="59.9138"
   x2="127.4327"
   y1="187.7258"
   x1="127.4327"
   gradientUnits="userSpaceOnUse"
   id="SVGID_24_">
		<stop
   id="stop267"
   style="stop-color:#4D5E6C"
   offset="8.458065e-02" />
		<stop
   id="stop269"
   style="stop-color:#000000"
   offset="0.668" />
	</linearGradient>
	<path
   id="path272"
   d="M213.1,100.8c0-47.3-38.3-85.6-85.5-85.8v0c0,0-0.1,0-0.1,0c0,0-0.1,0-0.1,0v0c-47.2,0.1-85.5,38.5-85.5,85.8   s38.3,85.6,85.5,85.8v0c0,0,0.1,0,0.1,0c0,0,0.1,0,0.1,0v0C174.8,186.4,213.1,148.1,213.1,100.8z"
   class="st24" />
	<path
   id="path274"
   d="M127.4,97c-51.4,0-93,41.6-93,93s42.2,94.5,91.5,93c-36.5,1.1-65-29.8-65-66.5c0-36.7,29.8-66.5,66.5-66.5   c36.7,0,66.5,29.8,66.5,66.5c0,36.7-28.6,68.1-65.3,66.5c47.7,2.1,91.1-40.2,91.8-93C221.1,138.7,178.8,97,127.4,97z"
   class="st10" />
	<linearGradient
   y2="-70.5017"
   x2="127.4327"
   y1="276.458"
   x1="127.4327"
   gradientUnits="userSpaceOnUse"
   id="SVGID_25_">
		<stop
   id="stop276"
   style="stop-color:#0C497A"
   offset="0.1786" />
		<stop
   id="stop278"
   style="stop-color:#0C4878"
   offset="0.4126" />
		<stop
   id="stop280"
   style="stop-color:#0B4370"
   offset="0.5513" />
		<stop
   id="stop282"
   style="stop-color:#0A3A61"
   offset="0.6651" />
		<stop
   id="stop284"
   style="stop-color:#082E4D"
   offset="0.7655" />
		<stop
   id="stop286"
   style="stop-color:#051F33"
   offset="0.8569" />
		<stop
   id="stop288"
   style="stop-color:#020C14"
   offset="0.9408" />
		<stop
   id="stop290"
   style="stop-color:#000000"
   offset="0.9842" />
	</linearGradient>
	<path
   id="path293"
   d="M254.9,0C212,11.2,156.4,15,127.4,15C98.4,15,42.8,11.2,0,0c26.8,44.5,8.3,72,16.4,136.2   c8,64.3,22.5,90.2,37.6,110.4c-3.1-10.7-4.8-22.3-4.8-34.4c0-55.2,35-99.9,78.3-100c43.2,0.1,78.3,44.9,78.3,100   c0,12.1-1.7,23.7-4.8,34.4c15.1-20.2,29.5-46.1,37.6-110.4C246.5,72,228.1,44.5,254.9,0z"
   class="st25" />
	<g
   id="g312">
		<linearGradient
   y2="-35.5665"
   x2="127.4327"
   y1="134.1781"
   x1="127.4327"
   gradientUnits="userSpaceOnUse"
   id="SVGID_26_">
			<stop
   id="stop295"
   style="stop-color:#8CAFCB"
   offset="0.1786" />
			<stop
   id="stop297"
   style="stop-color:#8EB1CD"
   offset="0.3674" />
			<stop
   id="stop299"
   style="stop-color:#95BAD3"
   offset="0.4792" />
			<stop
   id="stop301"
   style="stop-color:#A2C8DD"
   offset="0.5707" />
			<stop
   id="stop303"
   style="stop-color:#ACD4E5"
   offset="0.623" />
		</linearGradient>
		<path
   id="path306"
   d="M127.4,83.4C123.5,9.5,33.1,29.9,0.3,0c0,86.6,16.9,141,69.6,146.3c30.5,1.1,53.3-4.1,57.6-43.2    c4.2,39.1,27.1,44.3,57.6,43.2C237.7,141,254.6,86.6,254.6,0C221.7,29.9,131.3,9.5,127.4,83.4z"
   class="st26" />
		<ellipse
   id="ellipse308"
   ry="52.4"
   rx="52.5"
   cy="84.6"
   cx="186.3"
   class="st27" />
		<ellipse
   id="ellipse310"
   ry="52.4"
   rx="52.5"
   cy="84.6"
   cx="69.1"
   class="st27" />
	</g>
	<path
   id="path314"
   d="M183.6,325.7l-2.1,9.9c-6.9,6.9-35.6,20.2-53.9,20.4v0c0,0-0.1,0-0.1,0c0,0-0.1,0-0.1,0v0   c-18.2-0.1-46.9-13.4-53.9-20.4l-2.1-9.9"
   class="st28" />
	<radialGradient
   gradientUnits="userSpaceOnUse"
   r="39.5126"
   cy="86.7694"
   cx="177.3036"
   id="SVGID_27_">
		<stop
   id="stop316"
   style="stop-color:#D37B1C"
   offset="7.585558e-02" />
		<stop
   id="stop318"
   style="stop-color:#D47D1C"
   offset="8.152291e-02" />
		<stop
   id="stop320"
   style="stop-color:#E79E1B"
   offset="0.1864" />
		<stop
   id="stop322"
   style="stop-color:#F4B51A"
   offset="0.2872" />
		<stop
   id="stop324"
   style="stop-color:#FCC31A"
   offset="0.3813" />
		<stop
   id="stop326"
   style="stop-color:#FFC81A"
   offset="0.4618" />
		<stop
   id="stop328"
   style="stop-color:#F9BE1A"
   offset="0.5612" />
		<stop
   id="stop330"
   style="stop-color:#E9A21B"
   offset="0.7315" />
		<stop
   id="stop332"
   style="stop-color:#D37B1C"
   offset="0.928" />
	</radialGradient>
	<circle
   id="circle335"
   r="32.1"
   cy="86.8"
   cx="177.3"
   class="st29" />
	<radialGradient
   gradientUnits="userSpaceOnUse"
   r="39.5126"
   cy="86.7694"
   cx="78.098"
   id="SVGID_28_">
		<stop
   id="stop337"
   style="stop-color:#D37B1C"
   offset="7.585558e-02" />
		<stop
   id="stop339"
   style="stop-color:#D47D1C"
   offset="8.152291e-02" />
		<stop
   id="stop341"
   style="stop-color:#E79E1B"
   offset="0.1864" />
		<stop
   id="stop343"
   style="stop-color:#F4B51A"
   offset="0.2872" />
		<stop
   id="stop345"
   style="stop-color:#FCC31A"
   offset="0.3813" />
		<stop
   id="stop347"
   style="stop-color:#FFC81A"
   offset="0.4618" />
		<stop
   id="stop349"
   style="stop-color:#F9BE1A"
   offset="0.5612" />
		<stop
   id="stop351"
   style="stop-color:#E9A21B"
   offset="0.7315" />
		<stop
   id="stop353"
   style="stop-color:#D37B1C"
   offset="0.928" />
	</radialGradient>
	<circle
   id="circle356"
   r="32.1"
   cy="86.8"
   cx="78.1"
   class="st30" />
	<circle
   id="circle358"
   r="15.2"
   cy="86.8"
   cx="174.9" />
	<circle
   id="circle360"
   r="7"
   cy="81.2"
   cx="174.9"
   class="st27" />
	<linearGradient
   y2="132.9452"
   x2="163.5663"
   y1="132.9452"
   x1="88.0232"
   gradientUnits="userSpaceOnUse"
   id="SVGID_29_">
		<stop
   id="stop362"
   style="stop-color:#000000"
   offset="0.2492" />
		<stop
   id="stop364"
   style="stop-color:#161B1F"
   offset="0.3914" />
		<stop
   id="stop366"
   style="stop-color:#272F36"
   offset="0.5181" />
		<stop
   id="stop368"
   style="stop-color:#191F23"
   offset="0.6282" />
		<stop
   id="stop370"
   style="stop-color:#000000"
   offset="0.7924" />
	</linearGradient>
	<path
   id="path373"
   d="M152.2,142.7c-5.9-16.8-13.5-31.4-24.6-41.1v-0.2c0,0-0.1,0.1-0.1,0.1c0,0-0.1-0.1-0.1-0.1v0.2   c-11.2,9.7-18.7,24.3-24.6,41.1c11.9,0,17,13.8,24.6,21.6v0.3c0,0,0.1-0.1,0.1-0.1c0,0,0.1,0.1,0.1,0.1v-0.3   C135.2,156.5,140.3,142.7,152.2,142.7z"
   class="st31" />
	<circle
   id="circle375"
   r="15.2"
   cy="86.8"
   cx="80.5" />
	<circle
   id="circle377"
   r="7"
   cy="81.2"
   cx="80.5"
   class="st27" />
	<path
   id="path379"
   d="M78.1,54.7C60.4,54.7,46,69,46,86.8c0,17.7,14.4,32.1,32.1,32.1s32.1-14.4,32.1-32.1   C110.2,69,95.8,54.7,78.1,54.7z M78.1,112.6c-15.1,0-27.3-12.2-27.3-27.3c0-15.1,12.4-29.5,27.5-29.5s30,14.4,30,29.5   C108.3,100.3,93.2,112.6,78.1,112.6z"
   class="st10" />
	<path
   id="path381"
   d="M145.2,86.8c0,17.7,14.4,32.1,32.1,32.1s32.1-14.4,32.1-32.1c0-17.7-14.4-32.1-32.1-32.1S145.2,69,145.2,86.8   z M147.1,85.2c0-15.1,14.9-29.5,30-29.5s27.5,14.4,27.5,29.5c0,15.1-12.2,27.3-27.3,27.3S147.1,100.3,147.1,85.2z"
   class="st10" />
</g>
</svg>